<svg width="144" height="145" viewBox="0 0 144 145" fill="none" xmlns="http://www.w3.org/2000/svg">
<path fill-rule="evenodd" clip-rule="evenodd" d="M31 40.8572V19.8572H43V40.8572H64V52.8572H43V73.8572H31V52.8572H10V40.8572H31Z" fill="#34D399"/>
<path fill-rule="evenodd" clip-rule="evenodd" d="M78 55.8572V1.85718H133V55.8572H78ZM90 43.8572H121V13.8572H90V43.8572Z" fill="#0EA5E9"/>
<path fill-rule="evenodd" clip-rule="evenodd" d="M64.9999 144.857L38.2431 90.8572L10.9999 144.857H64.9999ZM30.4946 132.857H45.6616L38.1464 117.69L30.4946 132.857Z" fill="#FB7185"/>
<path fill-rule="evenodd" clip-rule="evenodd" d="M93.9999 125.857C108.912 125.857 121 113.769 121 98.8572C121 83.9455 108.912 71.8572 93.9999 71.8572C79.0882 71.8572 66.9999 83.9455 66.9999 98.8572C66.9999 113.769 79.0882 125.857 93.9999 125.857ZM93.9999 113.857C102.284 113.857 109 107.141 109 98.8572C109 90.5729 102.284 83.8572 93.9999 83.8572C85.7156 83.8572 78.9999 90.5729 78.9999 98.8572C78.9999 107.141 85.7156 113.857 93.9999 113.857Z" fill="#FACC15"/>
</svg>
