<svg width="665" height="144" viewBox="0 0 665 144" fill="none" xmlns="http://www.w3.org/2000/svg">
<path fill-rule="evenodd" clip-rule="evenodd" d="M21 39.9286V18.9286H33V39.9286H54V51.9286H33V72.9286H21V51.9286H0V39.9286H21Z" fill="#34D399"/>
<path fill-rule="evenodd" clip-rule="evenodd" d="M68 54.9286V0.928589H123V54.9286H68ZM80 42.9286H111V12.9286H80V42.9286Z" fill="#0EA5E9"/>
<path fill-rule="evenodd" clip-rule="evenodd" d="M54.9999 143.929L28.2431 89.9286L0.999878 143.929H54.9999ZM20.4946 131.929H35.6616L28.1464 116.762L20.4946 131.929Z" fill="#FB7185"/>
<path fill-rule="evenodd" clip-rule="evenodd" d="M83.9999 124.929C98.9116 124.929 111 112.84 111 97.9286C111 83.0169 98.9116 70.9286 83.9999 70.9286C69.0882 70.9286 56.9999 83.0169 56.9999 97.9286C56.9999 112.84 69.0882 124.929 83.9999 124.929ZM83.9999 112.929C92.2841 112.929 98.9999 106.213 98.9999 97.9286C98.9999 89.6443 92.2841 82.9286 83.9999 82.9286C75.7156 82.9286 68.9999 89.6443 68.9999 97.9286C68.9999 106.213 75.7156 112.929 83.9999 112.929Z" fill="#FACC15"/>
<path d="M211.282 99.9286H186.712C180.212 99.9286 175.376 98.6286 172.204 96.0286C169.084 93.4286 167.524 89.4246 167.524 84.0166V59.6806C167.524 54.2726 169.084 50.2686 172.204 47.6686C175.376 45.0686 180.212 43.7686 186.712 43.7686H206.212C207.2 43.7686 207.902 44.0026 208.318 44.4706C208.786 44.8866 209.02 45.5886 209.02 46.5766V56.0146C209.02 57.0026 208.786 57.7306 208.318 58.1986C207.902 58.6146 207.2 58.8226 206.212 58.8226H189.988C188.376 58.8226 187.18 59.1606 186.4 59.8366C185.62 60.4606 185.23 61.4226 185.23 62.7226V81.3646C185.23 82.6646 185.516 83.6266 186.088 84.2506C186.712 84.8746 187.622 85.1866 188.818 85.1866H196.384V73.0186C196.384 72.0306 196.592 71.3286 197.008 70.9126C197.476 70.4446 198.204 70.2106 199.192 70.2106H211.282C212.27 70.2106 212.972 70.4446 213.388 70.9126C213.856 71.3286 214.09 72.0306 214.09 73.0186V97.1206C214.09 98.1086 213.856 98.8366 213.388 99.3046C212.972 99.7206 212.27 99.9286 211.282 99.9286Z" fill="black"/>
<path d="M262.607 99.9286H226.415C225.427 99.9286 224.699 99.7206 224.231 99.3046C223.815 98.8366 223.607 98.1086 223.607 97.1206V46.5766C223.607 45.5886 223.815 44.8866 224.231 44.4706C224.699 44.0026 225.427 43.7686 226.415 43.7686H262.607C263.595 43.7686 264.297 44.0026 264.713 44.4706C265.181 44.8866 265.415 45.5886 265.415 46.5766V55.7026C265.415 56.6906 265.181 57.4186 264.713 57.8866C264.297 58.3026 263.595 58.5106 262.607 58.5106H241.079V64.5166H256.289C257.277 64.5166 257.979 64.7506 258.395 65.2186C258.863 65.6346 259.097 66.3366 259.097 67.3246V75.6706C259.097 76.6586 258.863 77.3866 258.395 77.8546C257.979 78.2706 257.277 78.4786 256.289 78.4786H241.079V85.1866H262.607C263.595 85.1866 264.297 85.4206 264.713 85.8886C265.181 86.3046 265.415 87.0066 265.415 87.9946V97.1206C265.415 98.1086 265.181 98.8366 264.713 99.3046C264.297 99.7206 263.595 99.9286 262.607 99.9286Z" fill="black"/>
<path d="M313.642 99.9286H277.45C276.462 99.9286 275.734 99.7206 275.266 99.3046C274.85 98.8366 274.642 98.1086 274.642 97.1206V46.5766C274.642 45.5886 274.85 44.8866 275.266 44.4706C275.734 44.0026 276.462 43.7686 277.45 43.7686H313.642C314.63 43.7686 315.332 44.0026 315.748 44.4706C316.216 44.8866 316.45 45.5886 316.45 46.5766V55.7026C316.45 56.6906 316.216 57.4186 315.748 57.8866C315.332 58.3026 314.63 58.5106 313.642 58.5106H292.114V64.5166H307.324C308.312 64.5166 309.014 64.7506 309.43 65.2186C309.898 65.6346 310.132 66.3366 310.132 67.3246V75.6706C310.132 76.6586 309.898 77.3866 309.43 77.8546C309.014 78.2706 308.312 78.4786 307.324 78.4786H292.114V85.1866H313.642C314.63 85.1866 315.332 85.4206 315.748 85.8886C316.216 86.3046 316.45 87.0066 316.45 87.9946V97.1206C316.45 98.1086 316.216 98.8366 315.748 99.3046C315.332 99.7206 314.63 99.9286 313.642 99.9286Z" fill="black"/>
<path d="M340.575 99.9286H328.485C327.497 99.9286 326.769 99.7206 326.301 99.3046C325.885 98.8366 325.677 98.1086 325.677 97.1206V46.5766C325.677 45.5886 325.885 44.8866 326.301 44.4706C326.769 44.0026 327.497 43.7686 328.485 43.7686H340.575C341.563 43.7686 342.265 44.0026 342.681 44.4706C343.149 44.8866 343.383 45.5886 343.383 46.5766V64.5166H346.503L354.537 46.3426C354.901 45.4066 355.395 44.7566 356.019 44.3926C356.643 43.9766 357.449 43.7686 358.437 43.7686H370.449C371.333 43.7686 371.931 44.0026 372.243 44.4706C372.555 44.8866 372.529 45.5106 372.165 46.3426L364.209 64.5166C367.121 64.6726 369.435 65.7126 371.151 67.6366C372.919 69.5086 373.803 72.0046 373.803 75.1246V97.1206C373.803 98.1086 373.569 98.8366 373.101 99.3046C372.685 99.7206 371.983 99.9286 370.995 99.9286H358.983C357.995 99.9286 357.267 99.7206 356.799 99.3046C356.383 98.8366 356.175 98.1086 356.175 97.1206V81.9106C356.175 81.0786 355.967 80.4286 355.551 79.9606C355.135 79.4926 354.511 79.2586 353.679 79.2586H343.383V97.1206C343.383 98.1086 343.149 98.8366 342.681 99.3046C342.265 99.7206 341.563 99.9286 340.575 99.9286Z" fill="black"/>
<path d="M440.392 99.9286H404.2C403.212 99.9286 402.484 99.7206 402.016 99.3046C401.6 98.8366 401.392 98.1086 401.392 97.1206V46.5766C401.392 45.5886 401.6 44.8866 402.016 44.4706C402.484 44.0026 403.212 43.7686 404.2 43.7686H440.392C441.38 43.7686 442.082 44.0026 442.498 44.4706C442.966 44.8866 443.2 45.5886 443.2 46.5766V55.7026C443.2 56.6906 442.966 57.4186 442.498 57.8866C442.082 58.3026 441.38 58.5106 440.392 58.5106H418.864V64.5166H434.074C435.062 64.5166 435.764 64.7506 436.18 65.2186C436.648 65.6346 436.882 66.3366 436.882 67.3246V75.6706C436.882 76.6586 436.648 77.3866 436.18 77.8546C435.764 78.2706 435.062 78.4786 434.074 78.4786H418.864V85.1866H440.392C441.38 85.1866 442.082 85.4206 442.498 85.8886C442.966 86.3046 443.2 87.0066 443.2 87.9946V97.1206C443.2 98.1086 442.966 98.8366 442.498 99.3046C442.082 99.7206 441.38 99.9286 440.392 99.9286Z" fill="black"/>
<path d="M485.655 99.9286H465.375C464.387 99.9286 463.555 99.7466 462.879 99.3826C462.255 99.0186 461.761 98.3426 461.397 97.3546L453.753 78.2446C453.285 77.1006 452.895 76.1126 452.583 75.2806C452.271 74.3966 452.011 73.5646 451.803 72.7846C451.595 72.0046 451.439 71.1986 451.335 70.3666C451.283 69.4826 451.257 68.4166 451.257 67.1686V46.5766C451.257 45.5886 451.465 44.8866 451.881 44.4706C452.349 44.0026 453.077 43.7686 454.065 43.7686H466.467C467.455 43.7686 468.209 44.0026 468.729 44.4706C469.249 44.8866 469.509 45.5886 469.509 46.5766V68.1046C469.509 68.6246 469.561 69.1446 469.665 69.6646C469.769 70.1846 469.925 70.7306 470.133 71.3026L473.799 82.2226C473.955 82.7426 474.137 83.1066 474.345 83.3146C474.553 83.4706 474.865 83.5486 475.281 83.5486H476.139C476.555 83.5486 476.867 83.4706 477.075 83.3146C477.283 83.1066 477.465 82.7426 477.621 82.2226L481.287 71.2246C481.495 70.6526 481.651 70.1066 481.755 69.5866C481.859 69.0666 481.911 68.5466 481.911 68.0266V46.5766C481.911 45.5886 482.119 44.8866 482.535 44.4706C483.003 44.0026 483.731 43.7686 484.719 43.7686H496.965C497.953 43.7686 498.655 44.0026 499.071 44.4706C499.539 44.8866 499.773 45.5886 499.773 46.5766V67.1686C499.773 68.4166 499.721 69.4826 499.617 70.3666C499.565 71.1986 499.435 72.0046 499.227 72.7846C499.019 73.5646 498.759 74.3966 498.447 75.2806C498.135 76.1126 497.745 77.1006 497.277 78.2446L489.633 97.3546C489.269 98.3426 488.749 99.0186 488.073 99.3826C487.449 99.7466 486.643 99.9286 485.655 99.9286Z" fill="black"/>
<path d="M548.403 99.9286H512.211C511.223 99.9286 510.495 99.7206 510.027 99.3046C509.611 98.8366 509.403 98.1086 509.403 97.1206V46.5766C509.403 45.5886 509.611 44.8866 510.027 44.4706C510.495 44.0026 511.223 43.7686 512.211 43.7686H548.403C549.391 43.7686 550.093 44.0026 550.509 44.4706C550.977 44.8866 551.211 45.5886 551.211 46.5766V55.7026C551.211 56.6906 550.977 57.4186 550.509 57.8866C550.093 58.3026 549.391 58.5106 548.403 58.5106H526.875V64.5166H542.085C543.073 64.5166 543.775 64.7506 544.191 65.2186C544.659 65.6346 544.893 66.3366 544.893 67.3246V75.6706C544.893 76.6586 544.659 77.3866 544.191 77.8546C543.775 78.2706 543.073 78.4786 542.085 78.4786H526.875V85.1866H548.403C549.391 85.1866 550.093 85.4206 550.509 85.8886C550.977 86.3046 551.211 87.0066 551.211 87.9946V97.1206C551.211 98.1086 550.977 98.8366 550.509 99.3046C550.093 99.7206 549.391 99.9286 548.403 99.9286Z" fill="black"/>
<path d="M574.947 99.9286H563.247C562.259 99.9286 561.531 99.7206 561.063 99.3046C560.647 98.8366 560.439 98.1086 560.439 97.1206V46.5766C560.439 45.5886 560.647 44.8866 561.063 44.4706C561.531 44.0026 562.259 43.7686 563.247 43.7686H571.359C572.347 43.7686 573.179 43.9246 573.855 44.2366C574.583 44.5486 575.285 45.0946 575.961 45.8746L591.093 63.1906V46.5766C591.093 45.5886 591.301 44.8866 591.717 44.4706C592.185 44.0026 592.913 43.7686 593.901 43.7686H605.601C606.589 43.7686 607.291 44.0026 607.707 44.4706C608.175 44.8866 608.409 45.5886 608.409 46.5766V97.1206C608.409 98.1086 608.175 98.8366 607.707 99.3046C607.291 99.7206 606.589 99.9286 605.601 99.9286H593.901C592.913 99.9286 592.185 99.7206 591.717 99.3046C591.301 98.8366 591.093 98.1086 591.093 97.1206V87.5266L577.755 71.3806V97.1206C577.755 98.1086 577.521 98.8366 577.053 99.3046C576.637 99.7206 575.935 99.9286 574.947 99.9286Z" fill="black"/>
<path d="M645.687 99.9286H633.051C632.063 99.9286 631.335 99.7206 630.867 99.3046C630.451 98.8366 630.243 98.1086 630.243 97.1206V58.8226H618.777C617.789 58.8226 617.061 58.6146 616.593 58.1986C616.177 57.7306 615.969 57.0026 615.969 56.0146V46.5766C615.969 45.5886 616.177 44.8866 616.593 44.4706C617.061 44.0026 617.789 43.7686 618.777 43.7686H659.961C660.949 43.7686 661.651 44.0026 662.067 44.4706C662.535 44.8866 662.769 45.5886 662.769 46.5766V56.0146C662.769 57.0026 662.535 57.7306 662.067 58.1986C661.651 58.6146 660.949 58.8226 659.961 58.8226H648.495V97.1206C648.495 98.1086 648.261 98.8366 647.793 99.3046C647.377 99.7206 646.675 99.9286 645.687 99.9286Z" fill="black"/>
</svg>
